<?xml version="1.0" encoding="UTF-8"?>
<!DOCTYPE svg PUBLIC "-//W3C//DTD SVG 1.1//EN" "http://www.w3.org/Graphics/SVG/1.1/DTD/svg11.dtd">
<svg xmlns="http://www.w3.org/2000/svg" version="1.1" width="250px" height="250px" style="shape-rendering:geometricPrecision; text-rendering:geometricPrecision; image-rendering:optimizeQuality; fill-rule:evenodd; clip-rule:evenodd" xmlns:xlink="http://www.w3.org/1999/xlink">
<g><path style="opacity:1" fill="#fefefe" d="M -0.5,-0.5 C 82.8333,-0.5 166.167,-0.5 249.5,-0.5C 249.5,82.8333 249.5,166.167 249.5,249.5C 166.167,249.5 82.8333,249.5 -0.5,249.5C -0.5,166.167 -0.5,82.8333 -0.5,-0.5 Z"/></g>
<g><path style="opacity:1" fill="#000000" d="M 175.5,164.5 C 175.5,187.167 175.5,209.833 175.5,232.5C 161.833,232.5 148.167,232.5 134.5,232.5C 134.667,202.831 134.5,173.165 134,143.5C 132.928,139.427 130.428,136.593 126.5,135C 120.175,134.5 113.842,134.334 107.5,134.5C 107.5,167.167 107.5,199.833 107.5,232.5C 93.5,232.5 79.5,232.5 65.5,232.5C 65.5,163.833 65.5,95.1667 65.5,26.5C 79.5,26.5 93.5,26.5 107.5,26.5C 107.5,59.1667 107.5,91.8333 107.5,124.5C 111.351,125.029 114.851,124.362 118,122.5C 125.992,90.8672 133.825,59.2006 141.5,27.5C 154.149,26.5009 166.816,26.1676 179.5,26.5C 171.149,61.2377 162.482,95.9044 153.5,130.5C 165.858,138.542 173.192,149.876 175.5,164.5 Z"/></g>
<g><path style="opacity:1" fill="#a4a4a4" d="M 175.5,164.5 C 176.498,187.327 176.831,210.327 176.5,233.5C 162.323,233.829 148.323,233.496 134.5,232.5C 148.167,232.5 161.833,232.5 175.5,232.5C 175.5,209.833 175.5,187.167 175.5,164.5 Z"/></g>
</svg>
